# Made in Blockbench 4.8.3
mtllib materials.mtl

o cube
v 1 0.0625 2
v 1 0.0625 -2
v 1 0 2
v 1 0 -2
v -1 0.0625 -2
v -1 0.0625 2
v -1 0 -2
v -1 0 2
vt 0 1
vt 0.25 1
vt 0.25 0.9921875
vt 0 0.9921875
vt 0 1
vt 0.5 1
vt 0.5 0.9921875
vt 0 0.9921875
vt 0 1
vt 0.25 1
vt 0.25 0.9921875
vt 0 0.9921875
vt 0 1
vt 0.5 1
vt 0.5 0.9921875
vt 0 0.9921875
vt 0 1
vt 0.25 1
vt 0.25 0.5
vt 0 0.5
vt 0 1
vt 0.25 1
vt 0.25 0.5
vt 0 0.5
vn 0 0 -1
vn 1 0 0
vn 0 0 1
vn -1 0 0
vn 0 1 0
vn 0 -1 0
usemtl m_2571fee1-d3b8-d02e-24e3-6d716e9467e5
f 4/4/1 7/3/1 5/2/1 2/1/1
f 3/8/2 4/7/2 2/6/2 1/5/2
f 8/12/3 3/11/3 1/10/3 6/9/3
f 7/16/4 8/15/4 6/14/4 5/13/4
f 6/20/5 1/19/5 2/18/5 5/17/5
f 7/24/6 4/23/6 3/22/6 8/21/6
o cube
v -0.9375 1.0625 2
v -0.9375 1.0625 -2
v -0.9375 0.0625 2
v -0.9375 0.0625 -2
v -1 1.0625 -2
v -1 1.0625 2
v -1 0.0625 -2
v -1 0.0625 2
vt 0 1
vt 0.0078125 1
vt 0.0078125 0.875
vt 0 0.875
vt 0 1
vt 0.5 1
vt 0.5 0.875
vt 0 0.875
vt 0 1
vt 0.0078125 1
vt 0.0078125 0.875
vt 0 0.875
vt 0 1
vt 0.5 1
vt 0.5 0.875
vt 0 0.875
vt 0 1
vt 0.0078125 1
vt 0.0078125 0.5
vt 0 0.5
vt 0 1
vt 0.0078125 1
vt 0.0078125 0.5
vt 0 0.5
vn 0 0 -1
vn 1 0 0
vn 0 0 1
vn -1 0 0
vn 0 1 0
vn 0 -1 0
usemtl m_2571fee1-d3b8-d02e-24e3-6d716e9467e5
f 12/28/7 15/27/7 13/26/7 10/25/7
f 11/32/8 12/31/8 10/30/8 9/29/8
f 16/36/9 11/35/9 9/34/9 14/33/9
f 15/40/10 16/39/10 14/38/10 13/37/10
f 14/44/11 9/43/11 10/42/11 13/41/11
f 15/48/12 12/47/12 11/46/12 16/45/12
o cube
v 1 1.0625 -1.9375
v 1 1.0625 -2
v 1 0.0625 -1.9375
v 1 0.0625 -2
v -0.9375 1.0625 -2
v -0.9375 1.0625 -1.9375
v -0.9375 0.0625 -2
v -0.9375 0.0625 -1.9375
vt 0 1
vt 0.2421875 1
vt 0.2421875 0.875
vt 0 0.875
vt 0 1
vt 0.0078125 1
vt 0.0078125 0.875
vt 0 0.875
vt 0 1
vt 0.2421875 1
vt 0.2421875 0.875
vt 0 0.875
vt 0 1
vt 0.0078125 1
vt 0.0078125 0.875
vt 0 0.875
vt 0 1
vt 0.2421875 1
vt 0.2421875 0.9921875
vt 0 0.9921875
vt 0 1
vt 0.2421875 1
vt 0.2421875 0.9921875
vt 0 0.9921875
vn 0 0 -1
vn 1 0 0
vn 0 0 1
vn -1 0 0
vn 0 1 0
vn 0 -1 0
usemtl m_2571fee1-d3b8-d02e-24e3-6d716e9467e5
f 20/52/13 23/51/13 21/50/13 18/49/13
f 19/56/14 20/55/14 18/54/14 17/53/14
f 24/60/15 19/59/15 17/58/15 22/57/15
f 23/64/16 24/63/16 22/62/16 21/61/16
f 22/68/17 17/67/17 18/66/17 21/65/17
f 23/72/18 20/71/18 19/70/18 24/69/18
o cube
v 1 1.0625 2
v 1 1.0625 1.9375
v 1 0.0625 2
v 1 0.0625 1.9375
v -0.9375 1.0625 1.9375
v -0.9375 1.0625 2
v -0.9375 0.0625 1.9375
v -0.9375 0.0625 2
vt 0.2421875 1
vt 0 1
vt 0 0.875
vt 0.2421875 0.875
vt 0.0078125 1
vt 0 1
vt 0 0.875
vt 0.0078125 0.875
vt 0.2421875 1
vt 0 1
vt 0 0.875
vt 0.2421875 0.875
vt 0.0078125 1
vt 0 1
vt 0 0.875
vt 0.0078125 0.875
vt 0 0.9921875
vt 0.2421875 0.9921875
vt 0.2421875 1
vt 0 1
vt 0 0.9921875
vt 0.2421875 0.9921875
vt 0.2421875 1
vt 0 1
vn 0 0 -1
vn 1 0 0
vn 0 0 1
vn -1 0 0
vn 0 1 0
vn 0 -1 0
usemtl m_2571fee1-d3b8-d02e-24e3-6d716e9467e5
f 28/76/19 31/75/19 29/74/19 26/73/19
f 27/80/20 28/79/20 26/78/20 25/77/20
f 32/84/21 27/83/21 25/82/21 30/81/21
f 31/88/22 32/87/22 30/86/22 29/85/22
f 30/92/23 25/91/23 26/90/23 29/89/23
f 31/96/24 28/95/24 27/94/24 32/93/24
o cube
v 1 1.0625 2
v 1 1.0625 -1.9375
v 1 0.0625 2
v 1 0.0625 -1.9375
v 0.9375 1.0625 -1.9375
v 0.9375 1.0625 2
v 0.9375 0.0625 -1.9375
v 0.9375 0.0625 2
vt 0 1
vt 0.0078125 1
vt 0.0078125 0.875
vt 0 0.875
vt 0 1
vt 0.4921875 1
vt 0.4921875 0.875
vt 0 0.875
vt 0 1
vt 0.0078125 1
vt 0.0078125 0.875
vt 0 0.875
vt 0 1
vt 0.4921875 1
vt 0.4921875 0.875
vt 0 0.875
vt 0 1
vt 0.0078125 1
vt 0.0078125 0.5078125
vt 0 0.5078125
vt 0 1
vt 0.0078125 1
vt 0.0078125 0.5078125
vt 0 0.5078125
vn 0 0 -1
vn 1 0 0
vn 0 0 1
vn -1 0 0
vn 0 1 0
vn 0 -1 0
usemtl m_2571fee1-d3b8-d02e-24e3-6d716e9467e5
f 36/100/25 39/99/25 37/98/25 34/97/25
f 35/104/26 36/103/26 34/102/26 33/101/26
f 40/108/27 35/107/27 33/106/27 38/105/27
f 39/112/28 40/111/28 38/110/28 37/109/28
f 38/116/29 33/115/29 34/114/29 37/113/29
f 39/120/30 36/119/30 35/118/30 40/117/30
o sphere
v 1.734723475976807e-17 0 7.28583859910259e-17
v 1.734723475976807e-17 1.25 7.28583859910259e-17
v 0.10885435942514357 1.2828924651018017 0.9062499999999999
v 0.18854128114971277 1.03125 1.569671044359295
v 0.4052087188502872 0.6875 1.8125
v 0.1885412811497128 0.34375000000000017 1.5696710443592954
v 0.10885435942514357 0.09210753489819834 0.9062499999999999
v 0.29739564057485623 1.1578924651018017 0.6634210443592949
v 0.5151043594251437 1.03125 1.149078955640705
v 0.7822912811497127 0.6875 1.3268420887185903
v 0.5151043594251437 0.34375000000000017 1.149078955640705
v 0.29739564057485623 0.09210753489819834 0.6634210443592949
v 0.4062499999999999 1.0953924651018017 0.24282895564070492
v 0.7036456405748563 1.03125 0.4205920887185901
v 0.8125 0.6875 0.4856579112814099
v 0.7036456405748566 0.34375000000000017 0.4205920887185901
v 0.4062499999999999 0.09210753489819834 0.24282895564070492
v 0.4062499999999999 1.0953924651018017 -0.24282895564070486
v 0.7661456405748563 1.03125 -0.4205920887185901
v 0.8125 0.6875 -0.4856579112814099
v 0.7036456405748566 0.34375000000000017 -0.4205920887185902
v 0.4062499999999999 0.09210753489819834 -0.24282895564070486
v 0.29739564057485635 1.2828924651018017 -0.6634210443592946
v 0.7026043594251437 1.03125 -1.1490789556407046
v 0.7822912811497129 0.6875 -1.3268420887185899
v 0.5151043594251437 0.34375000000000017 -1.1490789556407046
v 0.29739564057485635 0.09210753489819834 -0.6634210443592946
v 0.10885435942514368 1.2828924651018017 -0.9062499999999994
v 0.313541281149713 1.03125 -1.5696710443592945
v 0.4052087188502874 0.6875 -1.8124999999999996
v 0.188541281149713 0.34375000000000017 -1.569671044359295
v 0.10885435942514368 0.09210753489819834 -0.9062499999999994
v -0.10885435942514338 1.1578924651018017 -0.9062499999999998
v -0.18854128114971247 0.90625 -1.569671044359295
v -0.4052087188502868 0.6875 -1.8125
v -0.1885412811497125 0.34375000000000017 -1.5696710443592954
v -0.10885435942514338 0.09210753489819834 -0.9062499999999998
v -0.29739564057485623 1.1578924651018017 -0.6634210443592948
v -0.5151043594251434 0.90625 -1.149078955640705
v -0.7822912811497127 0.6875 -1.3268420887185903
v -0.5151043594251434 0.34375000000000017 -1.149078955640705
v -0.29739564057485623 0.09210753489819834 -0.6634210443592948
v -0.4062499999999999 1.2828924651018017 -0.24282895564070467
v -0.7036456405748563 1.03125 -0.4205920887185898
v -0.8124999999999998 0.6875 -0.48565791128140956
v -0.7036456405748563 0.34375000000000017 -0.4205920887185899
v -0.4062499999999999 0.09210753489819834 -0.24282895564070467
v -0.4062499999999999 1.3453924651018017 0.2428289556407045
v -0.7661456405748563 1.03125 0.42059208871858933
v -0.8125 0.6875 0.485657911281409
v -0.7036456405748566 0.34375000000000017 0.42059208871858944
v -0.4062499999999999 0.09210753489819834 0.2428289556407045
v -0.29739564057485635 1.3453924651018017 0.6634210443592947
v -0.5776043594251437 0.84375 1.1490789556407046
v -0.7822912811497129 0.6875 1.3268420887185899
v -0.5151043594251437 0.34375000000000017 1.1490789556407046
v -0.29739564057485635 0.09210753489819834 0.6634210443592947
v -0.10885435942514352 1.2828924651018017 0.9062499999999999
v -0.1885412811497127 0.84375 1.569671044359295
v -0.4052087188502871 0.6875 1.8125
v -0.18854128114971272 0.34375000000000017 1.5696710443592954
v -0.10885435942514352 0.09210753489819834 0.9062499999999999
vt 0 0.967646875
vt 0.016746875 0.967646875
vt 0.0083734375 1
vt 0.0061296875 1
vt 0 0.967646875
vt 0.02900625 0.967646875
vt 0.022876562500000003 1
vt 0.002243750000000001 1
vt 0 0.967646875
vt 0.03349375 0.967646875
vt 0.03125 1
vt 0 1
vt 0.002243750000000001 0.967646875
vt 0.03125 0.967646875
vt 0.03349375 1
vt 0 1
vt 0.0061296875 0.967646875
vt 0.022876562500000003 0.967646875
vt 0.02900625 1
vt 0.016746875 1
vt 0 1
vt 0.0083734375 0.967646875
vt 0 0.967646875
vt 0.016746875 0.967646875
vt 0.0083734375 1
vt 0.0061296875 1
vt 0 0.967646875
vt 0.02900625 0.967646875
vt 0.022876562500000003 1
vt 0.002243750000000001 1
vt 0 0.967646875
vt 0.03349375 0.967646875
vt 0.03125 1
vt 0 1
vt 0.002243750000000001 0.967646875
vt 0.03125 0.967646875
vt 0.03349375 1
vt 0 1
vt 0.0061296875 0.967646875
vt 0.022876562500000003 0.967646875
vt 0.02900625 1
vt 0.016746875 1
vt 0 1
vt 0.0083734375 0.967646875
vt 0 0.967646875
vt 0.016746875 0.967646875
vt 0.0083734375 1
vt 0.0061296875 1
vt 0 0.967646875
vt 0.02900625 0.967646875
vt 0.022876562500000003 1
vt 0.002243750000000001 1
vt 0 0.967646875
vt 0.03349375 0.967646875
vt 0.03125 1
vt 0 1
vt 0.002243750000000001 0.967646875
vt 0.03125 0.967646875
vt 0.03349375 1
vt 0 1
vt 0.0061296875 0.967646875
vt 0.022876562500000003 0.967646875
vt 0.02900625 1
vt 0.016746875 1
vt 0 1
vt 0.0083734375 0.967646875
vt 0 0.967646875
vt 0.016746875 0.967646875
vt 0.0083734375 1
vt 0.0061296875 1
vt 0 0.967646875
vt 0.02900625 0.967646875
vt 0.022876562500000003 1
vt 0.002243750000000001 1
vt 0 0.967646875
vt 0.03349375 0.967646875
vt 0.03125 1
vt 0 1
vt 0.002243750000000001 0.967646875
vt 0.03125 0.967646875
vt 0.03349375 1
vt 0 1
vt 0.0061296875 0.967646875
vt 0.022876562500000003 0.967646875
vt 0.02900625 1
vt 0.016746875 1
vt 0 1
vt 0.0083734375 0.967646875
vt 0 0.967646875
vt 0.016746875 0.967646875
vt 0.0083734375 1
vt 0.0061296875 1
vt 0 0.967646875
vt 0.02900625 0.967646875
vt 0.022876562500000003 1
vt 0.002243750000000001 1
vt 0 0.967646875
vt 0.03349375 0.967646875
vt 0.03125 1
vt 0 1
vt 0.002243750000000001 0.967646875
vt 0.03125 0.967646875
vt 0.03349375 1
vt 0 1
vt 0.0061296875 0.967646875
vt 0.022876562500000003 0.967646875
vt 0.02900625 1
vt 0.016746875 1
vt 0 1
vt 0.0083734375 0.967646875
vt 0 0.967646875
vt 0.016746875 0.967646875
vt 0.0083734375 1
vt 0.0061296875 1
vt 0 0.967646875
vt 0.02900625 0.967646875
vt 0.022876562500000003 1
vt 0.002243750000000001 1
vt 0 0.967646875
vt 0.03349375 0.967646875
vt 0.03125 1
vt 0 1
vt 0.002243750000000001 0.967646875
vt 0.03125 0.967646875
vt 0.03349375 1
vt 0 1
vt 0.0061296875 0.967646875
vt 0.022876562500000003 0.967646875
vt 0.02900625 1
vt 0.016746875 1
vt 0 1
vt 0.0083734375 0.967646875
vt 0 0.967646875
vt 0.016746875 0.967646875
vt 0.0083734375 1
vt 0.0061296875 1
vt 0 0.967646875
vt 0.02900625 0.967646875
vt 0.022876562500000003 1
vt 0.002243750000000001 1
vt 0 0.967646875
vt 0.03349375 0.967646875
vt 0.03125 1
vt 0 1
vt 0.002243750000000001 0.967646875
vt 0.03125 0.967646875
vt 0.03349375 1
vt 0 1
vt 0.0061296875 0.967646875
vt 0.022876562500000003 0.967646875
vt 0.02900625 1
vt 0.016746875 1
vt 0 1
vt 0.0083734375 0.967646875
vt 0 0.967646875
vt 0.016746875 0.967646875
vt 0.0083734375 1
vt 0.0061296875 1
vt 0 0.967646875
vt 0.02900625 0.967646875
vt 0.022876562500000003 1
vt 0.002243750000000001 1
vt 0 0.967646875
vt 0.03349375 0.967646875
vt 0.03125 1
vt 0 1
vt 0.002243750000000001 0.967646875
vt 0.03125 0.967646875
vt 0.03349375 1
vt 0 1
vt 0.0061296875 0.967646875
vt 0.022876562500000003 0.967646875
vt 0.02900625 1
vt 0.016746875 1
vt 0 1
vt 0.0083734375 0.967646875
vt 0 0.967646875
vt 0.016746875 0.967646875
vt 0.0083734375 1
vt 0.0061296875 1
vt 0 0.967646875
vt 0.02900625 0.967646875
vt 0.022876562500000003 1
vt 0.002243750000000001 1
vt 0 0.967646875
vt 0.03349375 0.967646875
vt 0.03125 1
vt 0 1
vt 0.002243750000000001 0.967646875
vt 0.03125 0.967646875
vt 0.03349375 1
vt 0 1
vt 0.0061296875 0.967646875
vt 0.022876562500000003 0.967646875
vt 0.02900625 1
vt 0.016746875 1
vt 0 1
vt 0.0083734375 0.967646875
vt 0 0.967646875
vt 0.016746875 0.967646875
vt 0.0083734375 1
vt 0.0061296875 1
vt 0 0.967646875
vt 0.02900625 0.967646875
vt 0.022876562500000003 1
vt 0.002243750000000001 1
vt 0 0.967646875
vt 0.03349375 0.967646875
vt 0.03125 1
vt 0 1
vt 0.002243750000000001 0.967646875
vt 0.03125 0.967646875
vt 0.03349375 1
vt 0 1
vt 0.0061296875 0.967646875
vt 0.022876562500000003 0.967646875
vt 0.02900625 1
vt 0.016746875 1
vt 0 1
vt 0.0083734375 0.967646875
vt 0 0.967646875
vt 0.016746875 0.967646875
vt 0.0083734375 1
vt 0.0061296875 1
vt 0 0.967646875
vt 0.02900625 0.967646875
vt 0.022876562500000003 1
vt 0.002243750000000001 1
vt 0 0.967646875
vt 0.03349375 0.967646875
vt 0.03125 1
vt 0 1
vt 0.002243750000000001 0.967646875
vt 0.03125 0.967646875
vt 0.03349375 1
vt 0 1
vt 0.0061296875 0.967646875
vt 0.022876562500000003 0.967646875
vt 0.02900625 1
vt 0.016746875 1
vt 0 1
vt 0.0083734375 0.967646875
vt 0 0.967646875
vt 0.016746875 0.967646875
vt 0.0083734375 1
vt 0.0061296875 1
vt 0 0.967646875
vt 0.02900625 0.967646875
vt 0.022876562500000003 1
vt 0.002243750000000001 1
vt 0 0.967646875
vt 0.03349375 0.967646875
vt 0.03125 1
vt 0 1
vt 0.002243750000000001 0.967646875
vt 0.03125 0.967646875
vt 0.03349375 1
vt 0 1
vt 0.0061296875 0.967646875
vt 0.022876562500000003 0.967646875
vt 0.02900625 1
vt 0.016746875 1
vt 0 1
vt 0.0083734375 0.967646875
vn 0.46898929543629336 0.8787859775293453 -0.0882283767501283
vn 0.37294665073000527 0.8815102653618306 0.28956941787935114
vn 0.5780832373223213 0.6814381614085946 0.4488449653310362
vn 0.5780832373223215 -0.6814381614085945 0.4488449653310362
vn 0.37294665073000555 -0.8815102653618306 0.2895694178793511
vn 0.1122132931329302 -0.989857135697691 0.08712650430624523
vn 0.37627867130795545 0.9256355744672522 -0.04016397389950468
vn 0.34462840752879526 0.934492207160414 0.08919403276354634
vn 0.7821445125550599 0.6224636526382277 0.028088478497130736
vn 0.7260294193928362 -0.6614929281724948 0.1879052637737429
vn 0.5842817503971569 -0.7973378066121809 0.1512192391850689
vn 0.192432611525178 -0.9800455402755175 0.04980390554634536
vn 0.3556851772276132 0.9346058285183981 0
vn 0.2022189741379259 0.9792250709994788 0.015024873532603063
vn 0.9533420714928095 0.3018921905611325 0
vn 0.9533420714928096 -0.30189219056113203 0
vn 0.645942241466174 -0.7633862853691146 0
vn 0.22111428970585723 -0.9752479022729936 0
vn 0.4728331775765564 0.8438106596480943 0.2537958960407057
vn 0.16840496089909582 0.9856084443192843 -0.014688894822094128
vn 0.9894912840351163 0.1401580565683077 -0.0355347435270306
vn 0.9126093798260104 -0.33370092928318196 -0.23619443187578712
vn 0.5842817503971569 -0.797337806612181 -0.1512192391850688
vn 0.19243261152517796 -0.9800455402755175 -0.049803905546345326
vn -0.04042996649219057 0.9986891427333466 0.03139130446435025
vn 0.2733288312959017 0.9280968170689703 -0.25283917443478326
vn 0.7064066769370002 0.44739168763125287 -0.5484799764962109
vn 0.5780832373223213 -0.6814381614085948 -0.44884496533103563
vn 0.3729466507300056 -0.8815102653618307 -0.2895694178793512
vn 0.11221329313293017 -0.989857135697691 -0.08712650430624524
vn -0.4977249197927534 0.8668724370235379 -0.02832105482092217
vn -0.2209162533958914 0.8873455884687881 -0.4047391945568188
vn 4.475670780812293e-16 0.5769716239286007 -0.8167641919068156
vn 9.619011879146646e-16 -0.5769716239286005 -0.8167641919068159
vn 5.390349058039482e-16 -0.9349975263177834 -0.35465423412053865
vn 1.5469319473219597e-16 -0.9948747452104407 -0.10111499069109724
vn -0.11221329313293013 0.989857135697691 -0.08712650430624529
vn -0.37294665073000516 0.8815102653618309 -0.28956941787935114
vn -0.4456930127028268 0.8255940328129705 -0.3460523535702274
vn -0.5780832373223215 -0.6814381614085943 -0.4488449653310362
vn -0.3729466507300053 -0.8815102653618309 -0.28956941787935114
vn -0.11221329313293014 -0.989857135697691 -0.08712650430624529
vn 0.21282800928323098 0.9502742619530047 -0.2273390981204271
vn -0.4251036010232439 0.8673433849314294 -0.2588481813974387
vn -0.6243524241812808 0.7808209218849609 -0.02242182788441243
vn -0.7260294193928359 -0.6614929281724952 -0.18790526377374284
vn -0.584281750397157 -0.7973378066121806 -0.15121923918506888
vn -0.192432611525178 -0.9800455402755174 -0.049803905546345346
vn 0.15471222230236933 0.9798787778203444 -0.12610197876151816
vn -0.6288153844437651 0.7761497026589209 -0.04672099473800476
vn -0.9533420714928096 0.3018921905611319 -2.1793577197630943e-16
vn -0.9533420714928097 -0.3018921905611321 -2.516505532331424e-16
vn -0.6459422414661743 -0.7633862853691143 0
vn -0.22111428970585725 -0.9752479022729936 0
vn 0.19901031852672096 0.9786429351717278 -0.05150629629820347
vn -0.5193669709273097 0.785473083589235 0.33658577579364507
vn -0.9894912840351164 0.1401580565683077 0.03553474352703057
vn -0.9126093798260103 -0.3337009292831818 0.23619443187578684
vn -0.5842817503971571 -0.7973378066121809 0.1512192391850687
vn -0.19243261152517807 -0.9800455402755175 0.049803905546345305
vn 0.31128764801292064 0.9503113162560373 0.002898687686187167
vn -0.5018713497052641 0.7297928958270635 0.46424936999996597
vn -0.3948661343532397 0.866074028938011 0.3065885065360582
vn -0.5780832373223214 -0.6814381614085948 0.4488449653310356
vn -0.3729466507300057 -0.8815102653618305 0.28956941787935103
vn -0.11221329313293021 -0.989857135697691 0.08712650430624524
vn 0 0.999341981679855 -0.036271251042394426
vn -0.3918906391063721 0.7881340071220813 0.4746224960939908
vn 0 0.8409489252916922 0.5411145027170755
vn 0 -0.5769716239286 0.816764191906816
vn 0 -0.9349975263177834 0.35465423412053865
vn 0 -0.9948747452104407 0.10111499069109722
usemtl m_fb7ac302-b214-ced4-a9f7-98eaf17ece8c
f 43/121/31 48/122/31 42/123/31
f 43/124/32 44/125/32 49/126/32 48/127/32
f 44/128/33 45/129/33 50/130/33 49/131/33
f 45/132/34 46/133/34 51/134/34 50/135/34
f 46/136/35 47/137/35 52/138/35 51/139/35
f 52/140/36 47/141/36 41/142/36
f 48/143/37 53/144/37 42/145/37
f 48/146/38 49/147/38 54/148/38 53/149/38
f 49/150/39 50/151/39 55/152/39 54/153/39
f 50/154/40 51/155/40 56/156/40 55/157/40
f 51/158/41 52/159/41 57/160/41 56/161/41
f 57/162/42 52/163/42 41/164/42
f 53/165/43 58/166/43 42/167/43
f 53/168/44 54/169/44 59/170/44 58/171/44
f 54/172/45 55/173/45 60/174/45 59/175/45
f 55/176/46 56/177/46 61/178/46 60/179/46
f 56/180/47 57/181/47 62/182/47 61/183/47
f 62/184/48 57/185/48 41/186/48
f 58/187/49 63/188/49 42/189/49
f 58/190/50 59/191/50 64/192/50 63/193/50
f 59/194/51 60/195/51 65/196/51 64/197/51
f 60/198/52 61/199/52 66/200/52 65/201/52
f 61/202/53 62/203/53 67/204/53 66/205/53
f 67/206/54 62/207/54 41/208/54
f 63/209/55 68/210/55 42/211/55
f 63/212/56 64/213/56 69/214/56 68/215/56
f 64/216/57 65/217/57 70/218/57 69/219/57
f 65/220/58 66/221/58 71/222/58 70/223/58
f 66/224/59 67/225/59 72/226/59 71/227/59
f 72/228/60 67/229/60 41/230/60
f 68/231/61 73/232/61 42/233/61
f 68/234/62 69/235/62 74/236/62 73/237/62
f 69/238/63 70/239/63 75/240/63 74/241/63
f 70/242/64 71/243/64 76/244/64 75/245/64
f 71/246/65 72/247/65 77/248/65 76/249/65
f 77/250/66 72/251/66 41/252/66
f 73/253/67 78/254/67 42/255/67
f 73/256/68 74/257/68 79/258/68 78/259/68
f 74/260/69 75/261/69 80/262/69 79/263/69
f 75/264/70 76/265/70 81/266/70 80/267/70
f 76/268/71 77/269/71 82/270/71 81/271/71
f 82/272/72 77/273/72 41/274/72
f 78/275/73 83/276/73 42/277/73
f 78/278/74 79/279/74 84/280/74 83/281/74
f 79/282/75 80/283/75 85/284/75 84/285/75
f 80/286/76 81/287/76 86/288/76 85/289/76
f 81/290/77 82/291/77 87/292/77 86/293/77
f 87/294/78 82/295/78 41/296/78
f 83/297/79 88/298/79 42/299/79
f 83/300/80 84/301/80 89/302/80 88/303/80
f 84/304/81 85/305/81 90/306/81 89/307/81
f 85/308/82 86/309/82 91/310/82 90/311/82
f 86/312/83 87/313/83 92/314/83 91/315/83
f 92/316/84 87/317/84 41/318/84
f 88/319/85 93/320/85 42/321/85
f 88/322/86 89/323/86 94/324/86 93/325/86
f 89/326/87 90/327/87 95/328/87 94/329/87
f 90/330/88 91/331/88 96/332/88 95/333/88
f 91/334/89 92/335/89 97/336/89 96/337/89
f 97/338/90 92/339/90 41/340/90
f 93/341/91 98/342/91 42/343/91
f 93/344/92 94/345/92 99/346/92 98/347/92
f 94/348/93 95/349/93 100/350/93 99/351/93
f 95/352/94 96/353/94 101/354/94 100/355/94
f 96/356/95 97/357/95 102/358/95 101/359/95
f 102/360/96 97/361/96 41/362/96
f 98/363/97 43/364/97 42/365/97
f 98/366/98 99/367/98 44/368/98 43/369/98
f 99/370/99 100/371/99 45/372/99 44/373/99
f 100/374/100 101/375/100 46/376/100 45/377/100
f 101/378/101 102/379/101 47/380/101 46/381/101
f 47/382/102 102/383/102 41/384/102