# Made in Blockbench 4.8.3
mtllib materials.mtl

o cube
v -0.4375 0.625 0.5
v -0.4375 0.625 0.4375
v -0.4375 0 0.5
v -0.4375 0 0.4375
v -0.5 0.625 0.4375
v -0.5 0.625 0.5
v -0.5 0 0.4375
v -0.5 0 0.5
vt 0 1
vt 0.0625 1
vt 0.0625 0.375
vt 0 0.375
vt 0 1
vt 0.0625 1
vt 0.0625 0.375
vt 0 0.375
vt 0 1
vt 0.0625 1
vt 0.0625 0.375
vt 0 0.375
vt 0 1
vt 0.0625 1
vt 0.0625 0.375
vt 0 0.375
vt 0 1
vt 0.0625 1
vt 0.0625 0.9375
vt 0 0.9375
vt 0 1
vt 0.0625 1
vt 0.0625 0.9375
vt 0 0.9375
vn 0 0 -1
vn 1 0 0
vn 0 0 1
vn -1 0 0
vn 0 1 0
vn 0 -1 0
usemtl m_2d236218-7b0e-6cc7-dc2b-7cd0c77988b5
f 4/4/1 7/3/1 5/2/1 2/1/1
f 3/8/2 4/7/2 2/6/2 1/5/2
f 8/12/3 3/11/3 1/10/3 6/9/3
f 7/16/4 8/15/4 6/14/4 5/13/4
f 6/20/5 1/19/5 2/18/5 5/17/5
f 7/24/6 4/23/6 3/22/6 8/21/6
o cube
v 0.5625 0.625 0.5
v 0.5625 0.625 0.4375
v 0.5625 0 0.5
v 0.5625 0 0.4375
v 0.5 0.625 0.4375
v 0.5 0.625 0.5
v 0.5 0 0.4375
v 0.5 0 0.5
vt 0 1
vt 0.0625 1
vt 0.0625 0.375
vt 0 0.375
vt 0 1
vt 0.0625 1
vt 0.0625 0.375
vt 0 0.375
vt 0 1
vt 0.0625 1
vt 0.0625 0.375
vt 0 0.375
vt 0 1
vt 0.0625 1
vt 0.0625 0.375
vt 0 0.375
vt 0 1
vt 0.0625 1
vt 0.0625 0.9375
vt 0 0.9375
vt 0 1
vt 0.0625 1
vt 0.0625 0.9375
vt 0 0.9375
vn 0 0 -1
vn 1 0 0
vn 0 0 1
vn -1 0 0
vn 0 1 0
vn 0 -1 0
usemtl m_2d236218-7b0e-6cc7-dc2b-7cd0c77988b5
f 12/28/7 15/27/7 13/26/7 10/25/7
f 11/32/8 12/31/8 10/30/8 9/29/8
f 16/36/9 11/35/9 9/34/9 14/33/9
f 15/40/10 16/39/10 14/38/10 13/37/10
f 14/44/11 9/43/11 10/42/11 13/41/11
f 15/48/12 12/47/12 11/46/12 16/45/12
o cube
v 0.5625 0.625 -0.4375
v 0.5625 0.625 -0.5
v 0.5625 0 -0.4375
v 0.5625 0 -0.5
v 0.5 0.625 -0.5
v 0.5 0.625 -0.4375
v 0.5 0 -0.5
v 0.5 0 -0.4375
vt 0 1
vt 0.0625 1
vt 0.0625 0.375
vt 0 0.375
vt 0.0625 1
vt 0.125 1
vt 0.125 0.375
vt 0.0625 0.375
vt 0.125 1
vt 0.1875 1
vt 0.1875 0.375
vt 0.125 0.375
vt 0.1875 1
vt 0.25 1
vt 0.25 0.375
vt 0.1875 0.375
vt 0.3125 0.9375
vt 0.25 0.9375
vt 0.25 1
vt 0.3125 1
vt 0.3125 0.9375
vt 0.25 0.9375
vt 0.25 0.875
vt 0.3125 0.875
vn 0 0 -1
vn 1 0 0
vn 0 0 1
vn -1 0 0
vn 0 1 0
vn 0 -1 0
usemtl m_2d236218-7b0e-6cc7-dc2b-7cd0c77988b5
f 20/52/13 23/51/13 21/50/13 18/49/13
f 19/56/14 20/55/14 18/54/14 17/53/14
f 24/60/15 19/59/15 17/58/15 22/57/15
f 23/64/16 24/63/16 22/62/16 21/61/16
f 22/68/17 17/67/17 18/66/17 21/65/17
f 23/72/18 20/71/18 19/70/18 24/69/18
o cube
v -0.4375 0.625 -0.4375
v -0.4375 0.625 -0.5
v -0.4375 0 -0.4375
v -0.4375 0 -0.5
v -0.5 0.625 -0.5
v -0.5 0.625 -0.4375
v -0.5 0 -0.5
v -0.5 0 -0.4375
vt 0 1
vt 0.0625 1
vt 0.0625 0.375
vt 0 0.375
vt 0 1
vt 0.0625 1
vt 0.0625 0.375
vt 0 0.375
vt 0 1
vt 0.0625 1
vt 0.0625 0.375
vt 0 0.375
vt 0 1
vt 0.0625 1
vt 0.0625 0.375
vt 0 0.375
vt 0 1
vt 0.0625 1
vt 0.0625 0.9375
vt 0 0.9375
vt 0 1
vt 0.0625 1
vt 0.0625 0.9375
vt 0 0.9375
vn 0 0 -1
vn 1 0 0
vn 0 0 1
vn -1 0 0
vn 0 1 0
vn 0 -1 0
usemtl m_2d236218-7b0e-6cc7-dc2b-7cd0c77988b5
f 28/76/19 31/75/19 29/74/19 26/73/19
f 27/80/20 28/79/20 26/78/20 25/77/20
f 32/84/21 27/83/21 25/82/21 30/81/21
f 31/88/22 32/87/22 30/86/22 29/85/22
f 30/92/23 25/91/23 26/90/23 29/89/23
f 31/96/24 28/95/24 27/94/24 32/93/24
o cube
v -0.5 0.4375 0.1875
v -0.5 0.4375 -0.3125
v -0.5 0.375 0.1875
v -0.5 0.375 -0.3125
v -1 0.4375 -0.3125
v -1 0.4375 0.1875
v -1 0.375 -0.3125
v -1 0.375 0.1875
vt 0 1
vt 0.5 1
vt 0.5 0.9375
vt 0 0.9375
vt 0 1
vt 0.5 1
vt 0.5 0.9375
vt 0 0.9375
vt 0 1
vt 0.5 1
vt 0.5 0.9375
vt 0 0.9375
vt 0 1
vt 0.5 1
vt 0.5 0.9375
vt 0 0.9375
vt 0 1
vt 0.5 1
vt 0.5 0.5
vt 0 0.5
vt 0 1
vt 0.5 1
vt 0.5 0.5
vt 0 0.5
vn 0 0 -1
vn 1 0 0
vn 0 0 1
vn -1 0 0
vn 0 1 0
vn 0 -1 0
usemtl m_2d236218-7b0e-6cc7-dc2b-7cd0c77988b5
f 36/100/25 39/99/25 37/98/25 34/97/25
f 35/104/26 36/103/26 34/102/26 33/101/26
f 40/108/27 35/107/27 33/106/27 38/105/27
f 39/112/28 40/111/28 38/110/28 37/109/28
f 38/116/29 33/115/29 34/114/29 37/113/29
f 39/120/30 36/119/30 35/118/30 40/117/30
o cube
v 0.625 0.6875 0.5625
v 0.625 0.6875 -0.5625
v 0.625 0.625 0.5625
v 0.625 0.625 -0.5625
v -0.5625 0.6875 -0.5625
v -0.5625 0.6875 0.5625
v -0.5625 0.625 -0.5625
v -0.5625 0.625 0.5625
vt 0 1
vt 1.1875 1
vt 1.1875 0.9375
vt 0 0.9375
vt 0 1
vt 1.125 1
vt 1.125 0.9375
vt 0 0.9375
vt 0 1
vt 1.1875 1
vt 1.1875 0.9375
vt 0 0.9375
vt 0 1
vt 1.125 1
vt 1.125 0.9375
vt 0 0.9375
vt 0 1
vt 1 1
vt 1 0
vt 0 0
vt 0 1
vt 1 1
vt 1 0
vt 0 0
vn 0 0 -1
vn 1 0 0
vn 0 0 1
vn -1 0 0
vn 0 1 0
vn 0 -1 0
usemtl m_2d236218-7b0e-6cc7-dc2b-7cd0c77988b5
f 44/124/31 47/123/31 45/122/31 42/121/31
f 43/128/32 44/127/32 42/126/32 41/125/32
f 48/132/33 43/131/33 41/130/33 46/129/33
f 47/136/34 48/135/34 46/134/34 45/133/34
f 46/140/35 41/139/35 42/138/35 45/137/35
f 47/144/36 44/143/36 43/142/36 48/141/36
o cube
v -0.9375 0.375 -0.25
v -0.9375 0.375 -0.3125
v -0.9375 0 -0.25
v -0.9375 0 -0.3125
v -1 0.375 -0.3125
v -1 0.375 -0.25
v -1 0 -0.3125
v -1 0 -0.25
vt 0 1
vt 0.0625 1
vt 0.0625 0.625
vt 0 0.625
vt 0 1
vt 0.0625 1
vt 0.0625 0.625
vt 0 0.625
vt 0 1
vt 0.0625 1
vt 0.0625 0.625
vt 0 0.625
vt 0 1
vt 0.0625 1
vt 0.0625 0.625
vt 0 0.625
vt 0 1
vt 0.0625 1
vt 0.0625 0.9375
vt 0 0.9375
vt 0 1
vt 0.0625 1
vt 0.0625 0.9375
vt 0 0.9375
vn 0 0 -1
vn 1 0 0
vn 0 0 1
vn -1 0 0
vn 0 1 0
vn 0 -1 0
usemtl m_2d236218-7b0e-6cc7-dc2b-7cd0c77988b5
f 52/148/37 55/147/37 53/146/37 50/145/37
f 51/152/38 52/151/38 50/150/38 49/149/38
f 56/156/39 51/155/39 49/154/39 54/153/39
f 55/160/40 56/159/40 54/158/40 53/157/40
f 54/164/41 49/163/41 50/162/41 53/161/41
f 55/168/42 52/167/42 51/166/42 56/165/42
o cube
v -0.9375 0.375 0.1875
v -0.9375 0.375 0.125
v -0.9375 0 0.1875
v -0.9375 0 0.125
v -1 0.375 0.125
v -1 0.375 0.1875
v -1 0 0.125
v -1 0 0.1875
vt 0 1
vt 0.0625 1
vt 0.0625 0.625
vt 0 0.625
vt 0 1
vt 0.0625 1
vt 0.0625 0.625
vt 0 0.625
vt 0 1
vt 0.0625 1
vt 0.0625 0.625
vt 0 0.625
vt 0 1
vt 0.0625 1
vt 0.0625 0.625
vt 0 0.625
vt 0 1
vt 0.0625 1
vt 0.0625 0.9375
vt 0 0.9375
vt 0 1
vt 0.0625 1
vt 0.0625 0.9375
vt 0 0.9375
vn 0 0 -1
vn 1 0 0
vn 0 0 1
vn -1 0 0
vn 0 1 0
vn 0 -1 0
usemtl m_2d236218-7b0e-6cc7-dc2b-7cd0c77988b5
f 60/172/43 63/171/43 61/170/43 58/169/43
f 59/176/44 60/175/44 58/174/44 57/173/44
f 64/180/45 59/179/45 57/178/45 62/177/45
f 63/184/46 64/183/46 62/182/46 61/181/46
f 62/188/47 57/187/47 58/186/47 61/185/47
f 63/192/48 60/191/48 59/190/48 64/189/48
o cube
v -0.5 0.375 0.1875
v -0.5 0.375 0.125
v -0.5 0 0.1875
v -0.5 0 0.125
v -0.5625 0.375 0.125
v -0.5625 0.375 0.1875
v -0.5625 0 0.125
v -0.5625 0 0.1875
vt 0 1
vt 0.0625 1
vt 0.0625 0.625
vt 0 0.625
vt 0 1
vt 0.0625 1
vt 0.0625 0.625
vt 0 0.625
vt 0 1
vt 0.0625 1
vt 0.0625 0.625
vt 0 0.625
vt 0 1
vt 0.0625 1
vt 0.0625 0.625
vt 0 0.625
vt 0 1
vt 0.0625 1
vt 0.0625 0.9375
vt 0 0.9375
vt 0 1
vt 0.0625 1
vt 0.0625 0.9375
vt 0 0.9375
vn 0 0 -1
vn 1 0 0
vn 0 0 1
vn -1 0 0
vn 0 1 0
vn 0 -1 0
usemtl m_2d236218-7b0e-6cc7-dc2b-7cd0c77988b5
f 68/196/49 71/195/49 69/194/49 66/193/49
f 67/200/50 68/199/50 66/198/50 65/197/50
f 72/204/51 67/203/51 65/202/51 70/201/51
f 71/208/52 72/207/52 70/206/52 69/205/52
f 70/212/53 65/211/53 66/210/53 69/209/53
f 71/216/54 68/215/54 67/214/54 72/213/54
o cube
v -0.5 0.375 -0.25
v -0.5 0.375 -0.3125
v -0.5 0 -0.25
v -0.5 0 -0.3125
v -0.5625 0.375 -0.3125
v -0.5625 0.375 -0.25
v -0.5625 0 -0.3125
v -0.5625 0 -0.25
vt 0 1
vt 0.0625 1
vt 0.0625 0.625
vt 0 0.625
vt 0 1
vt 0.0625 1
vt 0.0625 0.625
vt 0 0.625
vt 0 1
vt 0.0625 1
vt 0.0625 0.625
vt 0 0.625
vt 0 1
vt 0.0625 1
vt 0.0625 0.625
vt 0 0.625
vt 0 1
vt 0.0625 1
vt 0.0625 0.9375
vt 0 0.9375
vt 0 1
vt 0.0625 1
vt 0.0625 0.9375
vt 0 0.9375
vn 0 0 -1
vn 1 0 0
vn 0 0 1
vn -1 0 0
vn 0 1 0
vn 0 -1 0
usemtl m_2d236218-7b0e-6cc7-dc2b-7cd0c77988b5
f 76/220/55 79/219/55 77/218/55 74/217/55
f 75/224/56 76/223/56 74/222/56 73/221/56
f 80/228/57 75/227/57 73/226/57 78/225/57
f 79/232/58 80/231/58 78/230/58 77/229/58
f 78/236/59 73/235/59 74/234/59 77/233/59
f 79/240/60 76/239/60 75/238/60 80/237/60
o cube
v -0.9375 1 0.1875
v -0.9375 1 -0.3125
v -0.9375 0.4375 0.1875
v -0.9375 0.4375 -0.3125
v -1 1 -0.3125
v -1 1 0.1875
v -1 0.4375 -0.3125
v -1 0.4375 0.1875
vt 0 1
vt 0.0625 1
vt 0.0625 0.4375
vt 0 0.4375
vt 0 1
vt 0.5 1
vt 0.5 0.4375
vt 0 0.4375
vt 0 1
vt 0.0625 1
vt 0.0625 0.4375
vt 0 0.4375
vt 0 1
vt 0.5 1
vt 0.5 0.4375
vt 0 0.4375
vt 0 1
vt 0.0625 1
vt 0.0625 0.5
vt 0 0.5
vt 0 1
vt 0.0625 1
vt 0.0625 0.5
vt 0 0.5
vn 0 0 -1
vn 1 0 0
vn 0 0 1
vn -1 0 0
vn 0 1 0
vn 0 -1 0
usemtl m_2d236218-7b0e-6cc7-dc2b-7cd0c77988b5
f 84/244/61 87/243/61 85/242/61 82/241/61
f 83/248/62 84/247/62 82/246/62 81/245/62
f 88/252/63 83/251/63 81/250/63 86/249/63
f 87/256/64 88/255/64 86/254/64 85/253/64
f 86/260/65 81/259/65 82/258/65 85/257/65
f 87/264/66 84/263/66 83/262/66 88/261/66
o cube
v 0.3125 1.25 0.3125
v 0.3125 1.25 0.25
v 0.3125 0.6875 0.3125
v 0.3125 0.6875 0.25
v 0.25 1.25 0.25
v 0.25 1.25 0.3125
v 0.25 0.6875 0.25
v 0.25 0.6875 0.3125
vt 0 1
vt 0.0625 1
vt 0.0625 0.4375
vt 0 0.4375
vt 0.0625 1
vt 0.125 1
vt 0.125 0.4375
vt 0.0625 0.4375
vt 0.125 1
vt 0.1875 1
vt 0.1875 0.4375
vt 0.125 0.4375
vt 0.1875 1
vt 0.25 1
vt 0.25 0.4375
vt 0.1875 0.4375
vt 0.3125 0.9375
vt 0.25 0.9375
vt 0.25 1
vt 0.3125 1
vt 0.3125 0.9375
vt 0.25 0.9375
vt 0.25 0.875
vt 0.3125 0.875
vn 0 0 -1
vn 1 0 0
vn 0 0 1
vn -1 0 0
vn 0 1 0
vn 0 -1 0
usemtl m_037e37be-a20e-2c25-08d8-6514cbd9977f
f 92/268/67 95/267/67 93/266/67 90/265/67
f 91/272/68 92/271/68 90/270/68 89/269/68
f 96/276/69 91/275/69 89/274/69 94/273/69
f 95/280/70 96/279/70 94/278/70 93/277/70
f 94/284/71 89/283/71 90/282/71 93/281/71
f 95/288/72 92/287/72 91/286/72 96/285/72
o cube
v 0.25 1.25 0.3125
v 0.25 1.25 0.25
v 0.25 1.1875 0.3125
v 0.25 1.1875 0.25
v 0.1875 1.25 0.25
v 0.1875 1.25 0.3125
v 0.1875 1.1875 0.25
v 0.1875 1.1875 0.3125
vt 0 1
vt 0.0625 1
vt 0.0625 0.9375
vt 0 0.9375
vt 0 1
vt 0.0625 1
vt 0.0625 0.9375
vt 0 0.9375
vt 0 1
vt 0.0625 1
vt 0.0625 0.9375
vt 0 0.9375
vt 0 1
vt 0.0625 1
vt 0.0625 0.9375
vt 0 0.9375
vt 0 1
vt 0.0625 1
vt 0.0625 0.9375
vt 0 0.9375
vt 0 1
vt 0.0625 1
vt 0.0625 0.9375
vt 0 0.9375
vn 0 0 -1
vn 1 0 0
vn 0 0 1
vn -1 0 0
vn 0 1 0
vn 0 -1 0
usemtl m_037e37be-a20e-2c25-08d8-6514cbd9977f
f 100/292/73 103/291/73 101/290/73 98/289/73
f 99/296/74 100/295/74 98/294/74 97/293/74
f 104/300/75 99/299/75 97/298/75 102/297/75
f 103/304/76 104/303/76 102/302/76 101/301/76
f 102/308/77 97/307/77 98/306/77 101/305/77
f 103/312/78 100/311/78 99/310/78 104/309/78
o cone
v 0.1482434297199119 0.9998496194172913 0.19685417473217648
v 0.2538979951550867 1.2051980706281087 0.29260973012204866
v 0.17859898467372537 0.934193524830949 0.3041604748923276
v 0.23117634814567956 0.9261283986160308 0.2634434919827831
v 0.26153190309949315 0.937816813979847 0.2048839552913987
v 0.26153190309949315 0.9661268694648633 0.14417284538377168
v 0.2311763481456796 1.0034729085661893 0.09757765513124766
v 0.17859898467372548 1.0398480902661236 0.0775835281331651
v 0.11788787476609841 1.0655057140036335 0.08954787457202545
v 0.06531051129414417 1.0735708402185518 0.1302648574815699
v 0.03495495634033066 1.0618824248547356 0.18882439417295427
v 0.03495495634033066 1.0335723693697192 0.24953550408058128
v 0.06531051129414417 0.9962263302683931 0.29613069433310535
v 0.11788787476609836 0.9598511485684589 0.3161248213311879
vt 0.21650625 0.96650625
vt 0.15849375 1
vt 0.125 0.875
vt 0.658493575579571 0.2829875884764643
vt 0.7235787907912907 0.2988117033776724
vt 0.6249991757001804 0.5624992617375633
vt 0.25 0.90849375
vt 0.21650625 0.96650625
vt 0.125 0.875
vt 0.026415352388259233 0.29882094824693817
vt 0.09150625 0.28299375000000004
vt 0.12499999999999999 0.5625
vt 0.25 0.84150625
vt 0.25 0.90849375
vt 0.125 0.875
vt 0.09150625 0.28299375000000004
vt 0.15849374999999996 0.28299375000000004
vt 0.12499999999999999 0.5625
vt 0.21650625 0.78349375
vt 0.25 0.84150625
vt 0.125 0.875
vt 0.15849374999999996 0.28299375000000004
vt 0.22358464761174077 0.29882094824693817
vt 0.12499999999999999 0.5625
vt 0.15849375 0.75
vt 0.21650625 0.78349375
vt 0.125 0.875
vt 0.588921230105146 0.7363118752724365
vt 0.6540064035239923 0.7204875884764641
vt 0.6875000650546913 0.9999931001977529
vt 0.09150625000000001 0.75
vt 0.15849375 0.75
vt 0.125 0.875
vt 0.6540064035239923 0.7204875884764641
vt 0.7209939035239923 0.7204875884764641
vt 0.6875001535239924 0.999993838476464
vt 0.03349374999999999 0.78349375
vt 0.09150625000000001 0.75
vt 0.125 0.875
vt 0.7209939035239923 0.7204875884764641
vt 0.7860787698948541 0.7363131381051363
vt 0.6874994151772508 1
vt 0 0.84150625
vt 0.03349374999999999 0.78349375
vt 0.125 0.875
vt 0.2764153314841876 0.5488146147823436
vt 0.3415062709040716 0.5329875884764643
vt 0.3750007592508131 0.8125
vt 0 0.90849375
vt 0 0.84150625
vt 0.125 0.875
vt 0.3415062709040716 0.5329875884764643
vt 0.4084937709040716 0.5329875884764643
vt 0.3750000209040716 0.8124938384764644
vt 0.03349374999999999 0.96650625
vt 0 0.90849375
vt 0.125 0.875
vt 0.4084937709040716 0.5329875884764643
vt 0.4735846685158124 0.5488147867234024
vt 0.3750000209040716 0.8124938384764644
vt 0.09150625000000001 1
vt 0.03349374999999999 0.96650625
vt 0.125 0.875
vt 0.5264212092087093 0.29881313810513654
vt 0.591506075579571 0.2829875884764643
vt 0.6250005639263125 0.5625
vt 0.15849375 1
vt 0.09150625000000001 1
vt 0.125 0.875
vt 0.591506075579571 0.2829875884764643
vt 0.658493575579571 0.2829875884764643
vt 0.624999825579571 0.5624938384764644
vn -0.42261826174069944 -0.8213938048432696 -0.383022221559489
vn 0.5943137964272708 -0.1313129659796225 0.7934406192916009
vn -0.42261826174069944 -0.8213938048432696 -0.383022221559489
vn 0.8910236255032093 -0.11834989263710499 0.43825814505597327
vn -0.42261826174069944 -0.8213938048432696 -0.383022221559489
vn 0.9996269604975414 0.02475298706534817 0.01154250743078347
vn -0.42261826174069944 -0.8213938048432696 -0.383022221559489
vn 0.8910236255032093 0.259651372076896 -0.37236818308456726
vn -0.42261826174069944 -0.8213938048432696 -0.383022221559489
vn 0.5943137964272707 0.5234044298303202 -0.6106053670008168
vn -0.42261826174069944 -0.8213938048432696 -0.383022221559489
vn 0.1890006323570005 0.7453397414993504 -0.6393335832805404
vn -0.42261826174069944 -0.8213938048432696 -0.383022221559489
vn -0.21631253171326903 0.865989919550321 -0.4508551295716002
vn -0.42261826174069944 -0.8213938048432696 -0.383022221559489
vn -0.5130223607892086 0.8530268462078036 -0.09567265533597152
vn -0.42261826174069944 -0.8213938048432696 -0.383022221559489
vn -0.6216256957835402 0.7099239665053507 0.3310429822892177
vn -0.42261826174069944 -0.8213938048432696 -0.383022221559489
vn -0.5130223607892086 0.47502558149380303 0.7149536728045682
vn -0.42261826174069944 -0.8213938048432696 -0.383022221559489
vn -0.21631253171326978 0.2112725237403788 0.9531908567208178
vn -0.42261826174069944 -0.8213938048432696 -0.383022221559489
vn 0.1890006323570005 -0.010662787928651605 0.9819190730005414
usemtl m_a571594e-84a4-f5c9-c490-df695c4239f1
f 108/313/79 107/314/79 105/315/79
f 107/316/80 108/317/80 106/318/80
f 109/319/81 108/320/81 105/321/81
f 108/322/82 109/323/82 106/324/82
f 110/325/83 109/326/83 105/327/83
f 109/328/84 110/329/84 106/330/84
f 111/331/85 110/332/85 105/333/85
f 110/334/86 111/335/86 106/336/86
f 112/337/87 111/338/87 105/339/87
f 111/340/88 112/341/88 106/342/88
f 113/343/89 112/344/89 105/345/89
f 112/346/90 113/347/90 106/348/90
f 114/349/91 113/350/91 105/351/91
f 113/352/92 114/353/92 106/354/92
f 115/355/93 114/356/93 105/357/93
f 114/358/94 115/359/94 106/360/94
f 116/361/95 115/362/95 105/363/95
f 115/364/96 116/365/96 106/366/96
f 117/367/97 116/368/97 105/369/97
f 116/370/98 117/371/98 106/372/98
f 118/373/99 117/374/99 105/375/99
f 117/376/100 118/377/100 106/378/100
f 107/379/101 118/380/101 105/381/101
f 118/382/102 107/383/102 106/384/102
o cube
v 0.375 0.75 0.375
v 0.375 0.75 0.1875
v 0.375 0.6875 0.375
v 0.375 0.6875 0.1875
v 0.1875 0.75 0.1875
v 0.1875 0.75 0.375
v 0.1875 0.6875 0.1875
v 0.1875 0.6875 0.375
vt 0 1
vt 0.1875 1
vt 0.1875 0.9375
vt 0 0.9375
vt 0 1
vt 0.1875 1
vt 0.1875 0.9375
vt 0 0.9375
vt 0 1
vt 0.1875 1
vt 0.1875 0.9375
vt 0 0.9375
vt 0 1
vt 0.1875 1
vt 0.1875 0.9375
vt 0 0.9375
vt 0 1
vt 0.1875 1
vt 0.1875 0.8125
vt 0 0.8125
vt 0 1
vt 0.1875 1
vt 0.1875 0.8125
vt 0 0.8125
vn 0 0 -1
vn 1 0 0
vn 0 0 1
vn -1 0 0
vn 0 1 0
vn 0 -1 0
usemtl m_037e37be-a20e-2c25-08d8-6514cbd9977f
f 122/388/103 125/387/103 123/386/103 120/385/103
f 121/392/104 122/391/104 120/390/104 119/389/104
f 126/396/105 121/395/105 119/394/105 124/393/105
f 125/400/106 126/399/106 124/398/106 123/397/106
f 124/404/107 119/403/107 120/402/107 123/401/107
f 125/408/108 122/407/108 121/406/108 126/405/108